<svg xmlns="http://www.w3.org/2000/svg" width="1600" height="900"><path fill="#AABBD3" d="M0 0h1600v900H0z"/><path fill="#015AAA" d="M232.91 598.113V817.03H97.235V598.113H232.91zm-54.267 23.182c-21.843.424-44.537 9.562-43.84 34.655 1.081 17.298 15.405 31.892 27.026 42.973 12.703 11.892 27.298 22.973 35.135 38.919 8.379 16.216.541 33.243-12.702 43.513-16.757 13.243-36.216 11.351-48.919-6.216-6.216-8.919-7.567-20.811-3.784-31.351 1.892-5.405 13.514-17.568 14.054-17.297 6.216 2.973 16.757 24.054 6.757 27.297-4.324 1.621-4.054 5.675 0 7.567 5.405 1.892 11.081 1.892 16.216 0 12.973-4.594 11.622-20 6.216-30.27-8.108-15.405-27.567-18.378-42.162-12.973-19.459 6.757-29.999 28.108-24.324 48.649 5.946 20.54 27.027 32.162 46.757 34.054 32.972 2.432 79.729-22.973 65.945-62.973-5.946-16.486-21.892-28.919-34.324-40-12.973-11.892-29.189-27.027-28.919-46.486.271-19.73 22.703-23.513 35.946-15.676 5.946 3.244 27.297-1.081 16.216-7.297-9.928-5.505-20.164-6.697-31.294-7.088zm-44.922-13.182c-13.243 0-13.513 20.54 0 20.54 13.244 0 13.244-20.54 0-20.54z"/><path fill="#015AAA" d="M82.1 828.922h162.972V582.978H82.1v245.944zm159.459-3.243H85.343V586.221h156.216v239.458zM681.311 219.748 1080.12 450 681.311 680.252l19.733-159.051-19.733-301.453z"/><path fill="#003E77" d="M1080.12 450 681.311 680.252l19.733-159.051z"/></svg>
