<?xml version="1.0" encoding="UTF-8"?>
<!DOCTYPE svg PUBLIC "-//W3C//DTD SVG 1.1//EN" "http://www.w3.org/Graphics/SVG/1.1/DTD/svg11.dtd">
<svg version="1.1" xmlns="http://www.w3.org/2000/svg" xmlns:xlink="http://www.w3.org/1999/xlink" x="0" y="0" width="160" height="144" viewBox="0, 0, 160, 144">
  <g id="Background">
    <rect x="0" y="0" width="160" height="144" fill="#000000" fill-opacity="0"/>
  </g>
  <g id="Layer_1">
    <g>
      <path d="M58.4,87 L108.6,87 L108.6,6 L58.4,6 L58.4,87 z" fill="#015AAA"/>
      <path d="M52.8,91.4 L113.1,91.4 L113.1,0.4 L52.8,0.4 L52.8,91.4 z M111.8,90.2 L54,90.2 L54,1.6 L111.8,1.6 L111.8,90.2 z" fill="#015AAA"/>
    </g>
    <path d="M62.5,68.4 C64.7,76 72.5,80.3 79.8,81 C92,81.9 109.3,72.5 104.2,57.7 C102,51.6 96.1,47 91.5,42.9 C86.7,38.5 80.7,32.9 80.8,25.7 C80.9,18.4 89.2,17 94.1,19.9 C96.3,21.1 104.2,19.5 100.1,17.2 C91.5,12.3 71.6,13.5 72.3,27.4 C72.7,33.8 78,39.2 82.3,43.3 C87,47.7 92.4,51.8 95.3,57.7 C98.4,63.7 95.5,70 90.6,73.8 C84.4,78.7 77.2,78 72.5,71.5 C70.2,68.2 69.7,63.8 71.1,59.9 C71.8,57.9 76.1,53.4 76.3,53.5 C78.6,54.6 82.5,62.4 78.8,63.6 C77.2,64.2 77.3,65.7 78.8,66.4 C80.8,67.1 82.9,67.1 84.8,66.4 C89.6,64.7 89.1,59 87.1,55.2 C84.1,49.5 76.9,48.4 71.5,50.4 C64.3,52.9 60.4,60.8 62.5,68.4 z" fill="#FFFFFF"/>
    <path d="M71.9,17.3 C76.8,17.3 76.8,9.7 71.9,9.7 C67,9.7 66.9,17.3 71.9,17.3 z" fill="#FFFFFF"/>
    <g>
      <g>
        <path d="M154.8,101.5 C154.5,101.3 154.3,101.1 154.1,101 C153.7,100.9 153.5,100.9 153.1,100.9 C152.7,100.9 152.5,100.9 152.1,101 C151.9,101.1 151.6,101.3 151.4,101.5 C151.2,101.8 151,102 150.9,102.2 C150.7,102.5 150.7,102.8 150.7,103.2 C150.7,103.6 150.8,103.8 150.9,104.2 C151,104.4 151.2,104.7 151.4,104.9 C151.5,105.1 151.9,105.3 152.1,105.4 C152.5,105.5 152.7,105.5 153.1,105.5 C153.5,105.5 153.8,105.4 154.1,105.4 C154.4,105.3 154.6,105.1 154.8,104.9 C155,104.8 155.2,104.4 155.3,104.2 C155.6,103.9 155.6,103.6 155.6,103.2 C155.6,102.8 155.5,102.6 155.3,102.2 C155.1,102 155,101.8 154.8,101.5 z M155,104.1 C154.9,104.4 154.6,104.5 154.5,104.7 C154.4,104.8 154.1,105 153.9,105.1 C153.7,105.2 153.3,105.2 153,105.2 C152.7,105.2 152.5,105.1 152.1,105.1 C151.9,105.1 151.7,104.9 151.5,104.7 C151.4,104.6 151.3,104.3 151.1,104.1 C150.8,103.5 150.8,103 151.1,102.4 C151.1,102.1 151.3,102 151.5,101.8 C151.6,101.7 151.9,101.5 152.1,101.4 C152.4,101.3 152.7,101.3 153,101.3 C153.4,101.3 153.6,101.3 153.9,101.4 C154.2,101.4 154.3,101.5 154.5,101.8 C154.8,101.9 154.9,102.2 155,102.4 C155.3,103 155.3,103.5 155,104.1 z" fill="#015AAA"/>
        <path d="M152.4,103.3 L152.9,103.3 L153.5,104.2 L154,104.2 L153.4,103.2 C153.5,103.2 153.7,103.1 153.8,102.9 C153.9,102.8 153.9,102.7 153.9,102.5 C153.9,102.4 153.8,102.1 153.7,102 C153.6,101.9 153.4,101.8 153.2,101.8 L152.3,101.8 L152,104.1 L152.4,104.1 L152.4,103.3 z M152.6,102 L153.1,102 C153.2,102 153.3,102 153.5,102.1 C153.6,102.2 153.6,102.4 153.6,102.5 C153.6,102.9 153.5,103 153.1,103 L152.6,102.9 L152.6,102 z" fill="#015AAA"/>
      </g>
      <g>
        <path d="M14.2,112.7 C14.3,112.7 14.4,112.6 14.4,112.2 L14.3,111.5 C15.2,111.9 15.9,112.1 16.8,112.1 C18.9,112.1 20.1,111 20.1,109.3 C20.1,107.9 19.2,107 17.5,106.7 C16.4,106.6 15.5,106.6 14.9,106.1 C14.7,105.8 14.5,105.6 14.5,105.2 C14.5,104.3 15.4,103.7 16.6,103.7 C17.6,103.7 18.7,104.2 19.4,104.9 L19.4,105.6 C19.4,105.7 19.4,105.8 19.5,105.8 C19.6,105.8 19.6,105.7 19.6,105.6 L19.6,105.2 C19.6,104.2 19.7,103.4 19.8,102.5 C19.8,102.4 19.8,102.4 19.7,102.4 C19.6,102.4 19.6,102.6 19.5,103 L19.4,103.5 C18.7,103.1 17.9,103 17.1,103 C15.3,103 14,104.1 14,105.8 C14,106.4 14.2,107 14.7,107.5 C15.3,108 16.1,108.2 16.8,108.2 C18.6,108.5 19.5,108.7 19.5,109.8 C19.5,110.7 18.8,111.2 17.5,111.2 C16.3,111.2 15,110.7 14.3,109.7 L14.2,108.8 C14.2,108.7 14.2,108.6 14.1,108.6 C14,108.6 14,108.7 14,108.8 C14,108.8 14.1,109.4 14.1,110.5 C14.1,111.1 14.1,111.7 14,112.3 C14,112.7 14,112.7 14.2,112.7 z" fill="#015AAA"/>
        <path d="M27.1,111 C28,111.9 29.2,112.4 30.5,112.4 C30.6,112.4 30.9,112.4 31,112.4 C33.5,112.1 35.4,110.1 35.3,107.6 C35.3,106.4 34.9,105.3 34.1,104.4 C33.1,103.5 32,103.2 30.8,103.2 C29.4,103.1 28.2,103.6 27.2,104.6 C26.2,105.6 25.8,106.8 25.8,108 C25.8,109 26.2,110.1 27.1,111 z M30.5,103.4 C32.2,103.4 33.4,105 33.4,107.7 C33.4,110.4 32.2,112 30.3,112 C28.6,112 27.4,110.4 27.4,107.7 C27.4,105 28.8,103.4 30.5,103.4 z" fill="#015AAA"/>
        <path d="M44,103.3 C43.3,103.3 42.3,103.4 41.5,103.4 C40.8,103.4 40.3,103.3 40,103.3 C39.9,103.3 39.8,103.2 39.8,103.4 C39.8,103.7 40.2,103.7 41,103.8 C41,104.5 41,105.3 41.4,106.3 L41.4,109.4 C41.4,110.3 41.4,111.1 41.3,111.9 C40.4,112 40.1,112.1 40.1,112.3 C40.1,112.4 40.2,112.4 40.4,112.4 C40.5,112.4 41.1,112.3 42.1,112.3 C43.1,112.3 43.7,112.4 43.8,112.4 C43.9,112.4 44.1,112.4 44.1,112.3 C44.1,112.1 43.6,112.1 42.9,111.9 C42.8,111.2 42.8,110.3 42.8,109.4 L42.8,106.3 C42.8,105.3 42.9,104.6 42.9,103.8 C43.1,103.7 43.5,103.7 43.9,103.7 C45.1,103.7 46.2,104.7 46.2,106 C46.2,107.2 45.3,107.7 43.7,107.7 L43.1,107.7 C43,107.7 42.9,107.7 42.9,107.8 C42.9,107.9 43,107.9 43,108.1 L44.7,110.6 C45.4,111.7 45.8,112.3 46.8,112.3 C47.3,112.3 47.8,112 48,111.6 C48,111.5 48,111.5 47.9,111.5 C47.8,111.6 47.5,111.6 47.4,111.6 C47,111.6 46.7,111.2 46.2,110.5 L44.5,108.2 C46.3,107.9 47.5,106.8 47.5,105.6 C47.4,104 46.3,103.3 44,103.3 z" fill="#015AAA"/>
        <path d="M54.3,104.5 C53.3,105.5 52.9,106.7 52.9,107.9 C52.9,109 53.3,110.1 54.1,111 C55.1,111.9 56.2,112.4 57.5,112.4 C57.6,112.4 57.9,112.4 58,112.4 C60.5,112.1 62.4,110.1 62.3,107.6 C62.3,106.4 61.9,105.3 61.1,104.4 C60.1,103.5 59,103.2 57.8,103.2 C56.5,103 55.2,103.5 54.3,104.5 z M60.7,107.7 C60.7,110.4 59.5,112 57.6,112 C55.8,112 54.6,110.4 54.6,107.7 C54.6,105 55.8,103.4 57.7,103.4 C59.4,103.4 60.7,105 60.7,107.7 z" fill="#015AAA"/>
        <path d="M71.6,103.3 C70.7,103.3 69.6,103.4 68.8,103.4 C67.9,103.4 67.3,103.3 67.2,103.3 C67.1,103.3 67,103.2 67,103.4 C67,103.7 67.5,103.7 68.2,103.8 L68.2,109.2 C68.2,110.2 68.2,110.9 68.2,111.7 C67.3,111.8 67,111.9 67,112.1 C67,112.2 67.1,112.2 67.2,112.2 C67.3,112.2 67.9,112.1 68.9,112.1 C70.3,112.1 70.9,112.2 71,112.2 C71.1,112.2 71.3,112.3 71.3,112.1 C71.3,111.9 70.8,111.7 69.8,111.7 C69.7,111 69.7,110.1 69.7,109.2 L69.7,108.1 C70.1,108.2 70.6,108.2 70.9,108.2 C73.2,108.2 74.6,107 74.6,105.5 C74.6,104.1 73.4,103.3 71.6,103.3 z M70.9,107.8 C70.7,107.8 70.3,107.8 69.7,107.8 L69.7,106.2 C69.7,105.2 69.7,104.5 69.8,103.7 C70.2,103.6 70.5,103.6 70.9,103.6 C71,103.6 71,103.6 71.2,103.6 C72.3,103.6 73.3,104.7 73.2,105.8 C73.1,107.1 72.3,107.8 70.9,107.8 z" fill="#015AAA"/>
        <path d="M87.7,105.2 C87.8,105.2 87.8,105.1 87.8,105 L87.8,104 C87.8,103.3 87.8,102.8 87.8,102.6 C87.8,102.5 87.7,102.5 87.7,102.5 C87.7,102.5 87.6,102.5 87.6,102.6 L87.5,103 C86.5,103.2 85.4,103.2 84.3,103.2 L83.2,103.2 C82.2,103.2 81.1,103.2 80,103 L79.9,102.6 C79.9,102.6 79.9,102.5 79.8,102.5 C79.7,102.5 79.7,102.4 79.7,102.6 C79.7,102.8 79.8,103.2 79.8,104 C79.8,104.5 79.8,104.9 79.8,105 C79.8,105.1 79.9,105.2 79.9,105.2 C79.9,105.2 80,105.2 80,105 L80.1,104.3 C81.1,103.9 82.1,103.7 83.1,103.7 C83.2,104.4 83.2,105.3 83.2,106.2 L83.2,109.3 C83.2,110.3 83.2,111 83.1,111.8 C82.2,111.9 81.9,112 81.9,112.2 C81.9,112.2 81.9,112.3 82.1,112.3 C82.4,112.3 83,112.2 83.9,112.2 C84.9,112.2 85.5,112.3 85.6,112.3 C85.7,112.3 85.9,112.3 85.9,112.2 C85.9,112 85.4,112 84.7,111.8 C84.6,111.1 84.6,110.2 84.6,109.3 L84.6,106.2 C84.6,105.3 84.6,104.5 84.7,103.7 C85.7,103.7 86.7,103.9 87.5,104.3 L87.6,105 C87.6,105.1 87.6,105.2 87.7,105.2 z" fill="#015AAA"/>
        <path d="M94.9,112.1 C95.9,112.1 96.5,112.2 96.6,112.2 C96.7,112.2 96.8,112.3 96.8,112.1 C96.8,111.9 96.4,111.9 95.6,111.7 C95.5,111 95.5,110.1 95.5,109.2 L95.5,106.1 C95.5,105.1 95.5,104.4 95.6,103.6 C96.5,103.5 96.8,103.2 96.8,103.2 C96.8,103.2 96.7,103.1 96.6,103.1 C96.1,103.2 95.5,103.2 94.9,103.2 C94.4,103.2 93.8,103.2 93.2,103.1 C93.1,103.1 93,103 93,103.2 C93,103.5 93.5,103.5 94.2,103.6 C94.2,104.3 94.2,105.1 94.3,106.1 L94.3,109.2 C94.3,110.1 94.3,110.9 94.2,111.7 C93.3,111.8 93,112.1 93,112.1 C93,112.1 93.1,112.2 93.2,112.2 C93.3,112.2 93.9,112.1 94.9,112.1 z" fill="#015AAA"/>
        <path d="M110.5,103.5 L110.4,103.5 C110.2,103.6 109.9,103.5 109.7,103.5 L107.4,108.8 L104.3,103.5 C104.2,103.5 103.9,103.5 103.8,103.5 L103.5,103.5 C103,103.5 102.6,103.4 102.3,103.4 C102.2,103.4 102.1,103.4 102.1,103.5 C102.1,103.6 102.5,103.6 102.8,103.8 C103.2,103.9 103.4,104.2 103.5,104.5 L103.8,104.9 L103.4,108.7 C103.3,109.7 103.2,110.7 102.9,111.7 C102,111.8 101.7,111.9 101.7,112.1 C101.7,112.1 101.7,112.2 102,112.2 C102.2,112.2 102.7,112.1 103.5,112.1 C104.4,112.1 105,112.2 105.1,112.2 C105.2,112.2 105.3,112.2 105.3,112.1 C105.3,111.9 104.9,111.9 103.9,111.7 C103.8,110.8 103.8,110.1 103.8,109.2 L103.8,108 L103.9,105.2 L106.6,110 C106.7,110.1 106.7,110.2 106.9,110.2 C107,110.2 107,110.1 107.1,109.8 L107.5,109.1 C107.9,108.4 108.5,107 109.5,104.9 L109.7,109.6 C109.8,110.3 109.8,111.1 109.8,111.8 C108.9,111.9 108.6,112 108.6,112.2 C108.6,112.2 108.7,112.3 108.9,112.3 C109,112.3 109.6,112.2 110.6,112.2 C111.6,112.2 112.2,112.3 112.3,112.3 C112.4,112.3 112.6,112.4 112.6,112.2 C112.6,112 112.2,112 111.4,111.8 C111.3,111.2 111.1,110.4 111.1,109.8 L110.9,103.9 C111.8,103.8 112.1,103.7 112.1,103.5 C112.1,103.5 112,103.4 111.9,103.4 C111.3,103.4 111,103.5 110.5,103.5 z" fill="#015AAA"/>
        <path d="M119.6,103.4 C119.1,103.4 118.5,103.4 117.9,103.3 C117.8,103.3 117.6,103.2 117.6,103.4 C117.6,103.7 118.1,103.7 118.8,103.8 C118.9,104.5 118.9,105.3 118.9,106.3 L118.9,109.4 C118.9,110.3 118.9,111.1 118.8,111.9 C117.9,112 117.6,112.3 117.6,112.3 C117.6,112.3 117.7,112.4 117.9,112.4 C118,112.4 118.6,112.3 119.6,112.3 C120.6,112.3 121.2,112.4 121.3,112.4 C121.4,112.4 121.6,112.5 121.6,112.3 C121.6,112.1 121.2,112.1 120.4,111.9 C120.3,111.2 120.3,110.3 120.3,109.4 L120.3,106.3 C120.3,105.3 120.3,104.6 120.4,103.8 C121.3,103.7 121.6,103.4 121.6,103.4 C121.6,103.4 121.5,103.3 121.3,103.3 C120.8,103.4 120.2,103.4 119.6,103.4 z" fill="#015AAA"/>
        <path d="M130.4,103.1 C128.6,103.1 127.3,104.2 127.3,105.9 C127.3,106.5 127.5,107.1 128,107.6 C128.6,108.1 129.4,108.3 130.1,108.3 C131.9,108.6 132.8,108.8 132.8,109.9 C132.8,110.8 132.1,111.3 130.8,111.3 C129.6,111.3 128.3,110.8 127.6,109.8 L127.5,108.9 C127.5,108.8 127.5,108.7 127.4,108.7 C127.3,108.7 127.3,108.8 127.3,108.9 C127.3,108.9 127.4,109.5 127.4,110.6 C127.4,111.2 127.4,111.8 127.3,112.4 C127.3,112.5 127.3,112.5 127.4,112.5 C127.5,112.5 127.7,112.4 127.7,112 L127.4,111.3 C128.1,111.7 129,111.9 129.9,111.9 C132,111.9 133.2,110.8 133.2,109.1 C133.2,107.7 132.3,106.8 130.6,106.5 C129.5,106.4 128.6,106.4 128,105.9 C127.8,105.6 127.6,105.4 127.6,105 C127.6,104.1 128.5,103.5 129.7,103.5 C130.7,103.5 131.8,104 132.5,104.7 L132.6,105.4 C132.6,105.5 132.6,105.6 132.7,105.6 C132.8,105.6 132.8,105.5 132.8,105.4 L132.8,105 C132.8,104 132.9,103.2 133.1,102.3 C133.1,102.2 133.1,102.2 133,102.2 C132.9,102.2 132.9,102.4 132.8,102.8 L132.7,103.3 C132,103.3 131.3,103.1 130.4,103.1 z" fill="#015AAA"/>
        <path d="M146.5,102.6 C146.5,102.5 146.4,102.5 146.4,102.5 C146.3,102.5 146.3,102.5 146.3,102.6 L146.2,103 C145.2,103.2 144.1,103.2 143,103.2 L142,103.2 C141,103.2 139.9,103.2 138.8,103 L138.7,102.6 C138.7,102.6 138.7,102.5 138.6,102.5 C138.5,102.5 138.5,102.4 138.5,102.6 C138.5,102.8 138.6,103.2 138.6,104 C138.6,104.5 138.6,104.9 138.6,105 C138.6,105.1 138.6,105.2 138.7,105.2 C138.7,105.2 138.8,105.2 138.8,105 L138.9,104.3 C139.9,103.9 140.9,103.7 141.9,103.7 C142,104.4 142,105.3 142,106.2 L142,109.3 C142,110.3 142,111 141.9,111.8 C141,111.9 140.7,112 140.7,112.2 C140.7,112.2 140.8,112.3 140.9,112.3 C141.5,112.2 142.1,112.2 142.7,112.2 C143.7,112.2 144.3,112.3 144.4,112.3 C144.5,112.3 144.6,112.3 144.6,112.2 C144.6,112 144.2,112 143.4,111.8 C143.3,111.1 143.3,110.2 143.3,109.3 L143.3,106.2 C143.3,105.3 143.3,104.5 143.4,103.7 C144.4,103.7 145.4,103.9 146.1,104.3 L146.2,105 C146.2,105.1 146.2,105.2 146.3,105.2 C146.4,105.2 146.4,105.1 146.4,105 L146.4,102.6 z" fill="#015AAA"/>
      </g>
    </g>
    <g>
      <path d="M4.1,118.5 C4.2,118.5 4.2,118.4 4.2,118.3 C4.2,118.2 4.1,118.1 4,118.1 C4,118.1 3.9,118.1 3.8,118.1 C3.5,118.1 2.9,118.2 2.1,118.2 C1.3,118.2 0.7,118.2 0.4,118.1 C0.3,118.1 0.2,118.1 0.2,118.1 C0.1,118.1 0,118.2 0,118.3 C0,118.4 0.1,118.5 0.2,118.5 C0.5,118.6 1,118.6 1.4,118.7 C1.5,119.6 1.5,121.4 1.5,122.6 C1.5,123.8 1.5,125.6 1.4,126.5 C1.2,126.5 0.5,126.6 0.2,126.7 C0.1,126.7 0.1,126.8 0.1,126.9 C0.1,127 0.2,127.1 0.3,127.1 C0.3,127.1 0.4,127.1 0.5,127.1 C0.8,127.1 1.4,127 2.2,127 C3,127 3.6,127 3.9,127.1 C4,127.1 4,127.1 4.1,127.1 C4.2,127.1 4.3,127 4.3,126.9 C4.3,126.8 4.2,126.7 4.2,126.7 L4.2,126.7 C3.9,126.6 3.3,126.6 3,126.5 C2.9,125.5 2.9,123.8 2.9,122.6 C2.9,121.4 2.9,119.6 3,118.7 C3.3,118.6 3.8,118.5 4.1,118.5 z" fill="#015AAA"/>
      <path d="M18.4,118.1 C18.4,118.1 18.3,118.1 18.3,118.1 C18.1,118.1 17.6,118.2 16.9,118.2 C16.2,118.2 15.6,118.2 15.3,118.1 C15.2,118.1 15.1,118.1 15.1,118.1 C15,118.1 14.9,118.2 14.9,118.3 C14.9,118.4 15,118.5 15.1,118.5 C15.4,118.6 16.1,118.6 16.4,118.7 C16.5,119.6 16.7,121.2 16.7,122.8 L16.7,124.6 L11.3,118.3 L11.3,118.3 L11.3,118.3 C11.2,118.3 11.1,118.3 11,118.3 C10.8,118.3 10.5,118.3 10.3,118.3 C10,118.3 9.8,118.3 9.6,118.3 C9.5,118.3 9.3,118.3 9.2,118.3 C9.1,118.3 8.9,118.4 8.9,118.5 C8.9,118.7 9.1,118.7 9.3,118.8 C9.7,118.9 10.1,119.3 10.6,119.8 C10.6,123.6 10.5,125.2 10.3,126.7 C10.1,126.7 9.6,126.8 9.3,126.9 C9.2,126.9 9.2,127 9.2,127.1 C9.2,127.2 9.3,127.3 9.4,127.3 C9.4,127.3 9.5,127.3 9.5,127.3 C9.7,127.3 10.3,127.2 10.9,127.2 C11.7,127.2 12.3,127.3 12.6,127.3 C12.7,127.3 12.7,127.3 12.7,127.3 C12.8,127.3 12.9,127.2 12.9,127.1 C12.9,127 12.8,126.9 12.7,126.9 C12.5,126.8 12.1,126.8 11.4,126.7 C11.2,125.3 11.1,123.8 11.1,120.4 L15,124.9 C15.7,125.7 16.1,126.2 16.4,126.6 C17.1,127.4 17.1,127.4 17.2,127.4 C17.3,127.4 17.4,127.3 17.4,127.2 C17.4,127.2 17.4,127.1 17.4,127 C17.4,126.5 17.3,125 17.3,122.9 C17.3,121.4 17.4,119.7 17.6,118.8 C18.1,118.8 18.5,118.7 18.6,118.6 C18.7,118.6 18.7,118.5 18.7,118.4 C18.7,118.2 18.6,118.1 18.4,118.1 z" fill="#015AAA"/>
      <path d="M31.5,117.5 C31.5,117.4 31.4,117.2 31.3,117.2 C31.2,117.2 31.1,117.3 31.1,117.4 C31.1,117.5 31,117.7 31,117.8 C31,117.8 31,117.8 31,117.8 C30,118 27.8,118 27.3,118 C26.7,118 24.6,118 23.6,117.8 C23.6,117.8 23.6,117.8 23.6,117.8 C23.6,117.7 23.6,117.5 23.5,117.4 C23.5,117.3 23.4,117.2 23.3,117.2 C23.1,117.2 23.1,117.3 23.1,117.5 C23.1,117.6 23.1,117.8 23.1,118 C23.1,118.3 23.2,118.6 23.2,118.8 C23.2,119.1 23.2,119.5 23.1,119.7 C23.1,119.8 23.1,119.9 23.1,120 C23.1,120.2 23.2,120.3 23.3,120.3 C23.4,120.3 23.4,120.3 23.5,120.1 C23.6,119.9 23.6,119.5 23.7,119.1 C24.3,118.7 25.3,118.5 26.5,118.5 C26.6,119.4 26.6,121.2 26.6,122.4 C26.6,123.7 26.6,125.4 26.5,126.3 C26.3,126.3 25.6,126.4 25.3,126.5 C25.2,126.5 25.1,126.6 25.1,126.7 C25.1,126.8 25.2,126.9 25.3,126.9 C25.3,126.9 25.4,126.9 25.5,126.9 C25.8,126.9 26.4,126.8 27.2,126.8 C28,126.8 28.6,126.8 28.9,126.9 C29,126.9 29.1,126.9 29.1,126.9 C29.2,126.9 29.3,126.8 29.3,126.7 C29.3,126.6 29.2,126.5 29.2,126.5 C28.9,126.4 28.3,126.4 28,126.3 C27.9,125.4 27.9,123.6 27.9,122.4 C27.9,121.1 27.9,119.4 28,118.5 C29.2,118.5 30.2,118.7 30.8,119.1 C30.8,119.5 30.9,119.9 31,120.1 L31,120.1 C31,120.2 31.1,120.3 31.2,120.3 C31.3,120.3 31.4,120.2 31.4,120 C31.4,120 31.4,119.9 31.4,119.7 C31.4,119.4 31.3,119 31.3,118.8 C31.3,118.6 31.3,118.3 31.4,118 C31.5,117.8 31.5,117.6 31.5,117.5 z" fill="#015AAA"/>
      <path d="M43.8,125.1 C43.8,124.9 43.7,124.8 43.6,124.8 C43.5,124.8 43.5,124.9 43.4,125 C43.3,125.2 43.3,125.6 43.2,125.9 C42.5,126.2 41.3,126.4 39.5,126.5 C39.3,126.5 39.2,126.5 39,126.5 C38.9,125.6 38.9,123.9 38.9,122.7 L39.5,122.7 C40.4,122.7 42.1,122.8 42.7,123 L42.7,123 C42.7,123.3 42.8,123.7 42.9,123.9 C42.9,124 43,124 43.1,124 C43.2,124 43.3,123.9 43.3,123.8 C43.3,123.7 43.3,123.6 43.3,123.4 C43.3,123.1 43.2,122.8 43.2,122.4 C43.2,122 43.2,121.6 43.3,121.4 C43.3,121.3 43.3,121.2 43.3,121.1 C43.3,120.9 43.2,120.9 43.1,120.9 C43,120.9 43,120.9 42.9,121.1 L42.9,121.3 C42.9,121.5 42.8,121.7 42.8,121.8 C42.1,122.1 40.4,122.3 39.6,122.3 L39,122.3 C39,121.1 39,119.5 39.1,118.6 C39.3,118.6 39.4,118.6 39.6,118.6 C40.6,118.6 42.4,118.8 43.2,119.2 C43.2,119.4 43.2,119.8 43.3,120.1 C43.3,120.2 43.4,120.3 43.5,120.3 C43.6,120.3 43.7,120.2 43.7,120 C43.7,119.9 43.7,119.7 43.7,119.5 C43.7,119.3 43.7,119 43.7,118.8 C43.7,118.6 43.7,118.3 43.8,118.1 C43.8,117.9 43.8,117.8 43.8,117.7 C43.8,117.5 43.7,117.4 43.6,117.4 C43.5,117.4 43.4,117.5 43.4,117.5 C43.4,117.6 43.3,117.7 43.3,118 C42.4,118.1 41.5,118.1 39.7,118.1 C39,118.1 38.4,118.1 37.9,118.1 L37.5,118.1 C37,118.1 36.6,118.1 36.5,118.1 C36.4,118.1 36.3,118.2 36.3,118.3 C36.3,118.4 36.4,118.5 36.4,118.5 C36.7,118.6 37.3,118.7 37.6,118.7 C37.7,119.6 37.7,121.4 37.7,122.6 C37.7,123.8 37.7,125.6 37.6,126.5 C37.3,126.5 36.7,126.6 36.4,126.7 C36.3,126.7 36.3,126.8 36.3,126.9 C36.3,127 36.4,127.1 36.5,127.1 C36.5,127.1 36.6,127.1 36.7,127.1 C36.9,127.1 37.2,127.1 37.5,127.1 C38.1,127.1 38.8,127.1 39.7,127.1 C41.7,127.1 42.6,127.1 43.4,127.3 C43.4,127.4 43.4,127.5 43.5,127.7 C43.5,127.8 43.6,127.9 43.7,127.9 C43.9,127.9 43.9,127.8 43.9,127.6 C43.9,127.5 43.9,127.4 43.9,127.2 C43.9,127 43.8,126.6 43.8,126.4 C43.8,126.1 43.8,125.8 43.9,125.6 C43.8,125.3 43.8,125.2 43.8,125.1 z" fill="#015AAA"/>
      <path d="M57.2,126.3 C57.1,126.3 57.1,126.3 57,126.3 C56.9,126.3 56.8,126.4 56.6,126.4 C56.2,126.4 55.9,126 55.5,125.4 L53.7,122.8 C55.6,122.5 56.6,121.6 56.6,120.2 C56.6,118.2 54.2,118 53.2,118 C52.8,118 52.3,118 51.8,118 C51.4,118 51.1,118 50.8,118 C50.5,118 50,118 49.5,117.9 C49.2,117.9 48.9,117.9 48.8,117.9 C48.7,117.9 48.6,118 48.6,118.1 C48.6,118.2 48.7,118.3 48.7,118.3 C48.9,118.4 49.5,118.4 49.9,118.5 C50,119.4 50,121.2 50,122.4 C50,123.6 50,125.4 49.9,126.3 C49.6,126.3 49,126.4 48.7,126.5 C48.6,126.5 48.6,126.6 48.6,126.7 C48.6,126.8 48.7,126.9 48.8,126.9 C48.8,126.9 48.9,126.9 49,126.9 C49.3,126.9 49.9,126.8 50.7,126.8 C51.5,126.8 52.1,126.8 52.4,126.9 C52.5,126.9 52.6,126.9 52.6,126.9 C52.7,126.9 52.8,126.8 52.8,126.7 C52.8,126.6 52.7,126.5 52.6,126.5 C52.3,126.4 51.7,126.4 51.4,126.3 C51.3,125.3 51.3,123.5 51.3,122.4 C51.3,121.3 51.3,119.4 51.4,118.5 C51.4,118.5 51.5,118.5 51.5,118.5 C51.7,118.5 52,118.4 52.3,118.4 C53.5,118.4 54.8,119.3 54.8,120.8 C54.8,121.9 54.1,122.4 52.5,122.4 C52.3,122.4 52.1,122.4 51.9,122.4 C51.8,122.4 51.7,122.4 51.7,122.4 C51.5,122.4 51.4,122.5 51.4,122.6 C51.4,122.7 51.5,122.8 51.6,122.9 L53.8,126 C54.2,126.6 54.7,127.2 55.5,127.2 C56.3,127.2 57.1,126.7 57.1,126.4 C57.4,126.4 57.4,126.3 57.2,126.3 z" fill="#015AAA"/>
      <path d="M71.4,118.1 C71.4,118.1 71.3,118.1 71.3,118.1 C71.1,118.1 70.6,118.2 69.9,118.2 C69.2,118.2 68.6,118.2 68.3,118.1 C68.2,118.1 68.1,118.1 68.1,118.1 C68,118.1 67.9,118.2 67.9,118.3 C67.9,118.4 68,118.5 68.1,118.5 C68.4,118.6 69.1,118.6 69.4,118.7 C69.5,119.6 69.7,121.2 69.7,122.8 L69.7,124.6 L64.3,118.3 L64.3,118.3 L64.3,118.3 C64.2,118.3 64.1,118.3 64,118.3 C63.8,118.3 63.5,118.3 63.3,118.3 C63,118.3 62.8,118.3 62.6,118.3 C62.5,118.3 62.3,118.3 62.2,118.3 C62.1,118.3 61.9,118.4 61.9,118.5 C61.9,118.7 62.1,118.7 62.3,118.8 C62.7,118.9 63.1,119.3 63.6,119.8 C63.6,123.6 63.5,125.2 63.3,126.7 C63.1,126.7 62.6,126.8 62.3,126.9 C62.2,126.9 62.2,127 62.2,127.1 C62.2,127.2 62.3,127.3 62.4,127.3 C62.4,127.3 62.5,127.3 62.5,127.3 C62.7,127.3 63.3,127.2 63.9,127.2 C64.7,127.2 65.3,127.3 65.6,127.3 C65.7,127.3 65.7,127.3 65.7,127.3 C65.8,127.3 65.9,127.2 65.9,127.1 C65.9,127 65.8,126.9 65.7,126.9 C65.5,126.8 65.1,126.8 64.4,126.7 C64.2,125.3 64.1,123.8 64.1,120.4 L68,124.9 C68.7,125.7 69.1,126.2 69.4,126.6 C70.1,127.4 70.1,127.4 70.2,127.4 C70.3,127.4 70.4,127.3 70.4,127.2 C70.4,127.2 70.4,127.1 70.4,127 C70.4,126.5 70.3,125 70.3,122.9 C70.3,121.4 70.4,119.7 70.6,118.8 C71.1,118.8 71.5,118.7 71.6,118.6 C71.7,118.6 71.7,118.5 71.7,118.4 C71.6,118.2 71.5,118.1 71.4,118.1 z" fill="#015AAA"/>
      <path d="M85.1,126.6 C84.9,126.5 84.3,126.5 84,126.4 L82.4,122.6 C81.8,121.2 81.1,119.2 80.9,118.5 C80.7,117.8 80.6,117.7 80.5,117.7 C80.4,117.7 80.4,117.8 80.3,117.9 L80.3,117.9 C79.7,119.6 77.9,124 76.5,126.4 L76.5,126.4 C76.3,126.4 75.7,126.5 75.5,126.5 C75.4,126.5 75.4,126.6 75.4,126.7 C75.4,126.8 75.5,126.9 75.6,126.9 C75.6,126.9 75.6,126.9 75.7,126.9 C75.9,126.9 76.5,126.8 77.2,126.8 C78,126.8 78.6,126.8 78.9,126.9 C79,126.9 79,126.9 79.1,126.9 C79.2,126.9 79.3,126.8 79.3,126.7 C79.3,126.6 79.2,126.5 79.1,126.5 C78.8,126.4 78,126.4 77.7,126.3 C77.8,125.8 78.1,124.8 78.3,124 L81.4,124 C81.6,124.5 81.9,125.4 82.1,126.1 L82.2,126.3 C81.9,126.3 81.2,126.4 80.8,126.4 C80.7,126.4 80.7,126.5 80.7,126.6 C80.7,126.7 80.8,126.8 80.9,126.8 C80.9,126.8 81,126.8 81.1,126.8 C81.4,126.8 82.1,126.7 83.1,126.7 C84,126.7 84.6,126.7 84.9,126.8 C85,126.8 85,126.8 85.1,126.8 C85.2,126.8 85.3,126.7 85.3,126.6 C85.2,126.7 85.1,126.7 85.1,126.6 z M81.2,123.8 L78.5,123.8 C78.8,123.1 79.5,121.3 79.9,120.5 L81.2,123.8 z" fill="#015AAA"/>
      <path d="M96.4,117.5 C96.4,117.4 96.3,117.2 96.2,117.2 C96.1,117.2 96,117.3 96,117.4 C96,117.5 95.9,117.7 95.9,117.8 C95.9,117.8 95.9,117.8 95.9,117.8 C94.9,118 92.7,118 92.2,118 C91.6,118 89.5,118 88.5,117.8 C88.5,117.8 88.5,117.8 88.5,117.8 C88.5,117.7 88.5,117.5 88.4,117.4 C88.4,117.3 88.3,117.2 88.2,117.2 C88,117.2 88,117.3 88,117.5 C88,117.6 88,117.8 88,118 C88,118.3 88.1,118.6 88.1,118.8 C88.1,119.1 88.1,119.5 88,119.7 C88,119.8 88,119.9 88,120 C88,120.2 88.1,120.3 88.2,120.3 C88.3,120.3 88.3,120.3 88.4,120.1 C88.5,119.9 88.5,119.5 88.6,119.1 C89.2,118.7 90.2,118.5 91.4,118.5 C91.5,119.4 91.5,121.2 91.5,122.4 C91.5,123.7 91.5,125.4 91.4,126.3 C91.2,126.3 90.5,126.4 90.2,126.5 C90.1,126.5 90.1,126.6 90.1,126.7 C90.1,126.8 90.2,126.9 90.3,126.9 C90.3,126.9 90.4,126.9 90.5,126.9 C90.8,126.9 91.4,126.8 92.2,126.8 C93,126.8 93.6,126.8 93.9,126.9 C94,126.9 94.1,126.9 94.1,126.9 C94.2,126.9 94.3,126.8 94.3,126.7 C94.3,126.6 94.2,126.5 94.1,126.5 C93.8,126.4 93.2,126.4 92.9,126.3 C92.8,125.4 92.8,123.6 92.8,122.4 C92.8,121.1 92.8,119.4 92.9,118.5 C94.1,118.5 95.1,118.7 95.7,119.1 C95.7,119.5 95.8,119.9 95.9,120.1 L95.9,120.1 C95.9,120.2 96,120.3 96.1,120.3 C96.2,120.3 96.3,120.2 96.3,120 C96.3,120 96.3,119.9 96.3,119.7 C96.3,119.4 96.2,119 96.2,118.8 C96.2,118.6 96.2,118.3 96.3,118 C96.4,117.8 96.4,117.6 96.4,117.5 z" fill="#015AAA"/>
      <path d="M105.1,118.5 C105.2,118.5 105.2,118.4 105.2,118.3 C105.2,118.2 105.1,118.1 105,118.1 C105,118.1 104.9,118.1 104.8,118.1 C104.5,118.1 103.9,118.2 103.1,118.2 C102.3,118.2 101.7,118.2 101.4,118.1 C101.3,118.1 101.2,118.1 101.2,118.1 C101.1,118.1 101,118.2 101,118.3 C101,118.4 101.1,118.5 101.2,118.5 C101.5,118.6 102,118.6 102.4,118.7 C102.5,119.6 102.5,121.4 102.5,122.6 C102.5,123.8 102.5,125.6 102.4,126.5 C102.2,126.5 101.5,126.6 101.2,126.7 C101.1,126.7 101.1,126.8 101.1,126.9 C101.1,127 101.2,127.1 101.3,127.1 C101.3,127.1 101.4,127.1 101.5,127.1 C101.8,127.1 102.4,127 103.2,127 C104,127 104.6,127 104.9,127.1 C105,127.1 105,127.1 105.1,127.1 C105.2,127.1 105.3,127 105.3,126.9 C105.3,126.8 105.2,126.7 105.2,126.7 L105.2,126.7 C104.9,126.6 104.3,126.6 104,126.5 C103.9,125.5 103.9,123.8 103.9,122.6 C103.9,121.4 103.9,119.6 104,118.7 C104.4,118.6 104.9,118.5 105.1,118.5 z" fill="#015AAA"/>
      <path d="M115.1,117.9 C112.3,117.9 110.2,119.9 110.2,122.6 C110.2,125.5 112.1,127.2 115.1,127.2 C117.7,127.2 119.8,125.2 119.8,122.6 C119.8,119.7 117.9,117.9 115.1,117.9 z M115.1,126.8 C112.8,126.8 112,124.5 112,122.6 C112,119.9 113.2,118.4 115.1,118.4 C117.9,118.4 118,122.2 118,122.6 C118,124.7 117.1,126.8 115.1,126.8 z" fill="#015AAA"/>
      <path d="M134.2,118.1 C134.2,118.1 134.1,118.1 134.1,118.1 C133.9,118.1 133.4,118.2 132.7,118.2 C132,118.2 131.4,118.2 131.1,118.1 C131,118.1 130.9,118.1 130.9,118.1 C130.8,118.1 130.7,118.2 130.7,118.3 C130.7,118.4 130.8,118.5 130.9,118.5 C131.2,118.6 131.9,118.6 132.2,118.7 C132.3,119.6 132.5,121.2 132.5,122.8 L132.5,124.6 L127.1,118.3 L127.1,118.3 L127.1,118.3 C127,118.3 126.9,118.3 126.8,118.3 C126.6,118.3 126.3,118.3 126.1,118.3 C125.8,118.3 125.6,118.3 125.4,118.3 C125.3,118.3 125.1,118.3 125,118.3 C124.9,118.3 124.7,118.4 124.7,118.5 C124.7,118.7 124.9,118.7 125.1,118.8 C125.5,118.9 125.9,119.3 126.4,119.8 C126.4,123.6 126.3,125.2 126.1,126.7 C125.9,126.7 125.4,126.8 125.1,126.9 C125,126.9 125,127 125,127.1 C125,127.2 125.1,127.3 125.2,127.3 C125.2,127.3 125.3,127.3 125.3,127.3 C125.5,127.3 126.1,127.2 126.7,127.2 C127.5,127.2 128.1,127.3 128.4,127.3 C128.5,127.3 128.5,127.3 128.5,127.3 C128.6,127.3 128.7,127.2 128.7,127.1 C128.7,127 128.6,126.9 128.5,126.9 C128.3,126.8 127.9,126.8 127.2,126.7 C127,125.3 126.9,123.8 126.9,120.4 L130.8,124.9 C131.5,125.7 131.9,126.2 132.2,126.6 C132.9,127.4 132.9,127.4 133,127.4 C133.1,127.4 133.2,127.3 133.2,127.2 C133.2,127.2 133.2,127.1 133.2,127 C133.2,126.5 133.1,125 133.1,122.9 C133.1,121.4 133.2,119.7 133.4,118.8 C133.9,118.8 134.3,118.7 134.4,118.6 C134.5,118.6 134.5,118.5 134.5,118.4 C134.4,118.2 134.3,118.1 134.2,118.1 z" fill="#015AAA"/>
      <path d="M147.9,126.6 C147.7,126.5 147.1,126.5 146.8,126.4 L145.2,122.6 C144.6,121.2 143.9,119.2 143.7,118.5 C143.5,117.8 143.4,117.7 143.3,117.7 C143.2,117.7 143.2,117.8 143.1,117.9 L143.1,117.9 C142.5,119.6 140.7,124 139.3,126.4 L139.3,126.4 C139.1,126.4 138.5,126.5 138.3,126.5 C138.2,126.5 138.2,126.6 138.2,126.7 C138.2,126.8 138.3,126.9 138.4,126.9 C138.4,126.9 138.4,126.9 138.5,126.9 C138.7,126.9 139.3,126.8 140,126.8 C140.8,126.8 141.4,126.8 141.7,126.9 C141.8,126.9 141.8,126.9 141.9,126.9 C142,126.9 142.1,126.8 142.1,126.7 C142.1,126.6 142,126.5 141.9,126.5 C141.6,126.4 140.8,126.4 140.5,126.3 C140.6,125.8 140.9,124.8 141.1,124 L144.2,124 C144.4,124.5 144.7,125.4 144.9,126.1 L145,126.3 C144.7,126.3 144,126.4 143.6,126.4 C143.5,126.4 143.5,126.5 143.5,126.6 C143.5,126.7 143.6,126.8 143.7,126.8 C143.7,126.8 143.8,126.8 143.9,126.8 C144.2,126.8 144.9,126.7 145.9,126.7 C146.8,126.7 147.4,126.7 147.7,126.8 C147.8,126.8 147.8,126.8 147.9,126.8 C148,126.8 148.1,126.7 148.1,126.6 C148.1,126.7 148,126.7 147.9,126.6 z M144.1,123.8 L141.4,123.8 C141.7,123.1 142.4,121.3 142.8,120.5 L144.1,123.8 z" fill="#015AAA"/>
      <path d="M159.9,126.2 C159.9,126 159.9,125.7 159.9,125.4 C159.9,125.1 159.9,124.9 159.9,124.8 C159.9,124.6 159.8,124.5 159.7,124.5 C159.6,124.5 159.6,124.6 159.5,124.7 C159.4,124.9 159.4,125.5 159.3,125.7 C158.5,126.1 157,126.4 156,126.4 C155.8,126.4 155.6,126.4 155.5,126.4 C155.4,125.4 155.4,123.7 155.4,122.5 C155.4,121.2 155.4,119.5 155.5,118.6 C155.9,118.6 156.4,118.5 156.7,118.4 C156.8,118.4 156.8,118.3 156.8,118.2 C156.8,118.1 156.7,118 156.6,118 C156.6,118 156.5,118 156.4,118 C156.1,118 155.5,118.1 154.7,118.1 C153.9,118.1 153.3,118.1 153,118 C152.9,118 152.8,118 152.8,118 C152.7,118 152.6,118.1 152.6,118.2 C152.6,118.3 152.7,118.4 152.8,118.4 C153.1,118.5 153.6,118.5 154,118.6 C154.1,119.5 154.1,121.3 154.1,122.5 C154.1,123.7 154.1,125.5 154,126.4 C153.8,126.4 153.1,126.5 152.8,126.6 C152.7,126.6 152.7,126.7 152.7,126.8 C152.7,126.9 152.8,127 152.9,127 C152.9,127 153,127 153.1,127 C153.3,127 153.6,127 153.9,127 C154.5,127 155.2,127 156.1,127 C157.9,127 158.7,127 159.5,127.2 C159.5,127.3 159.5,127.4 159.6,127.6 C159.6,127.7 159.7,127.8 159.8,127.8 C160,127.8 160,127.7 160,127.5 C160,127.4 160,127.3 160,127.1 C159.9,126.8 159.9,126.5 159.9,126.2 z" fill="#015AAA"/>
    </g>
    <g>
      <path d="M35.1,139 C35.1,141.4 33.2,143.5 30.5,143.5 C27.4,143.5 25.7,141.6 25.7,139 C25.7,136.2 28,134.4 30.5,134.4 C33.5,134.5 35.1,136.4 35.1,139 z M33.5,139 C33.5,137.4 32.9,134.7 30.5,134.7 C28.3,134.7 27.3,136.6 27.3,139 C27.3,140.7 28,143.3 30.5,143.3 C32.6,143.3 33.5,141 33.5,139 z" fill="#015AAA"/>
      <path d="M42.8,139.1 C42.8,140.3 42.8,142.1 42.9,143 C43.1,143 43.8,143.1 44.1,143.2 C44.1,143.2 44.2,143.3 44.2,143.3 C44.2,143.4 44.1,143.4 44.1,143.4 C44,143.4 43.3,143.3 42.2,143.3 C41.1,143.3 40.4,143.4 40.3,143.4 C40.2,143.4 40.2,143.3 40.2,143.3 C40.2,143.2 40.3,143.2 40.3,143.2 C40.6,143.1 41.3,143 41.5,143 C41.6,142.1 41.6,140.3 41.6,139 C41.6,137.7 41.6,135.9 41.5,135 C41.3,135 40.6,134.9 40.3,134.8 C40.3,134.8 40.2,134.7 40.2,134.7 C40.2,134.6 40.3,134.6 40.3,134.6 C40.4,134.6 40.8,134.6 41.3,134.6 C41.9,134.6 42.6,134.6 43.5,134.6 C45.4,134.6 46.3,134.5 47.2,134.5 C47.2,134.3 47.3,134.1 47.3,134 C47.3,133.9 47.3,133.9 47.4,133.9 C47.5,133.9 47.5,134 47.5,134.1 C47.5,134.3 47.4,134.8 47.4,135.2 C47.4,135.7 47.5,136.2 47.5,136.4 C47.5,136.5 47.4,136.6 47.3,136.6 C47.2,136.6 47.2,136.5 47.2,136.4 C47.1,136.1 47.1,135.7 47.1,135.5 C46.3,135.1 44.7,134.9 43.4,134.9 C43.2,134.9 43,134.9 42.8,134.9 C42.7,135.8 42.7,137.5 42.7,138.8 L43.4,138.8 C44.2,138.8 46,138.6 46.7,138.3 C46.7,138.1 46.8,137.8 46.9,137.5 C46.9,137.4 47,137.4 47,137.4 C47.1,137.4 47.1,137.5 47.1,137.6 C47.1,137.8 47,138.2 47,138.8 C47,139.5 47.1,140 47.1,140.2 C47.1,140.3 47.1,140.4 47,140.4 C46.9,140.4 46.9,140.4 46.9,140.3 C46.8,140.1 46.7,139.5 46.7,139.3 C46.1,139.1 44.2,139 43.4,139 L42.8,139 z" fill="#015AAA"/>
      <path d="M67.5,139.2 C67.5,137.6 67.3,135.9 67.2,135.1 C67,135.1 66.2,135 65.9,134.9 C65.9,134.9 65.8,134.8 65.8,134.8 C65.8,134.7 65.9,134.7 65.9,134.7 C66,134.7 66.7,134.8 67.7,134.8 C68.6,134.8 69.2,134.7 69.2,134.7 C69.3,134.7 69.3,134.8 69.3,134.8 C69.3,134.9 69.2,134.9 69.2,134.9 C68.9,135 68.3,135.1 68.1,135.1 C67.9,136 67.7,137.6 67.7,139.2 C67.7,141.7 67.8,143.4 67.8,143.5 C67.8,143.6 67.8,143.7 67.7,143.7 C67.6,143.7 67.6,143.6 65.6,141.2 L61.6,136.5 C61.6,140.2 61.7,141.7 61.9,143.1 C62.1,143.1 62.9,143.2 63.3,143.3 C63.3,143.3 63.4,143.4 63.4,143.4 C63.4,143.5 63.3,143.5 63.3,143.5 C63.2,143.5 62.5,143.4 61.5,143.4 C60.7,143.4 60,143.5 59.9,143.5 C59.8,143.5 59.8,143.4 59.8,143.4 C59.8,143.3 59.9,143.3 59.9,143.3 C60.2,143.2 60.8,143.1 61,143.1 C61.2,141.6 61.4,140.2 61.4,136.1 C60.9,135.6 60.5,135.2 60.1,135 C59.9,134.9 59.8,134.9 59.8,134.8 C59.8,134.7 59.9,134.6 60,134.6 C60.2,134.6 60.6,134.7 61.1,134.7 C61.4,134.7 61.8,134.6 62.1,134.6 L67.6,141.1 L67.6,139.2 z" fill="#015AAA"/>
      <path d="M83.7,139 C83.7,141.4 81.8,143.5 79.1,143.5 C76,143.5 74.3,141.6 74.3,139 C74.3,136.2 76.6,134.4 79.1,134.4 C82.1,134.5 83.7,136.4 83.7,139 z M82.1,139 C82.1,137.4 81.5,134.7 79.1,134.7 C76.9,134.7 75.9,136.6 75.9,139 C75.9,140.7 76.6,143.3 79.1,143.3 C81.2,143.3 82.1,141 82.1,139 z" fill="#015AAA"/>
      <path d="M93.4,141.7 C94.2,139.8 95.1,137.1 95.5,135.1 C95.3,135.1 94.6,135 94.3,134.9 C94.3,134.9 94.2,134.8 94.2,134.8 C94.2,134.7 94.3,134.7 94.3,134.7 C94.4,134.7 95.1,134.8 96.2,134.8 C96.9,134.8 97.4,134.7 97.4,134.7 C97.5,134.7 97.5,134.8 97.5,134.8 C97.5,134.9 97.4,134.9 97.4,134.9 C97.2,135 96.6,135.1 96.5,135.1 C95.9,136.3 94.4,140.1 93.7,141.9 C93.3,142.8 93.1,143.7 92.9,143.7 C92.6,143.7 92.3,142.6 91.9,141.6 C91.3,140.3 90.2,137.6 89.6,136.4 C89.4,136 89.2,135.6 89,135.2 C88.8,135.2 88.3,135.1 88,135 C88,135 87.9,134.9 87.9,134.9 C87.9,134.8 88,134.8 88,134.8 C88.1,134.8 88.8,134.9 89.8,134.9 C90.9,134.9 91.7,134.8 91.7,134.8 C91.8,134.8 91.8,134.9 91.8,134.9 C91.8,135 91.7,135 91.7,135 C91.4,135.1 90.6,135.2 90.4,135.2 C90.6,135.8 91.5,137.9 91.7,138.4 L93.4,141.7 z" fill="#015AAA"/>
      <path d="M108.2,143 C108.4,143 109.1,143.1 109.3,143.2 C109.3,143.2 109.4,143.3 109.4,143.3 C109.4,143.4 109.3,143.4 109.3,143.4 C109.2,143.4 108.5,143.3 107.4,143.3 C106.2,143.3 105.4,143.4 105.2,143.4 C105.1,143.4 105.1,143.3 105.1,143.3 C105.1,143.2 105.2,143.2 105.2,143.2 C105.6,143.1 106.4,143.1 106.7,143 C106.5,142.4 106.1,141.2 105.9,140.6 L102.7,140.6 C102.4,141.4 102.1,142.5 102,143 C102.3,143 103.1,143.1 103.5,143.2 C103.5,143.2 103.6,143.3 103.6,143.3 C103.6,143.4 103.5,143.4 103.5,143.4 C103.4,143.4 102.7,143.3 101.6,143.3 C100.7,143.3 100,143.4 100,143.4 C99.9,143.4 99.9,143.3 99.9,143.3 C99.9,143.2 100,143.2 100,143.2 C100.3,143.1 100.9,143.1 101.1,143.1 C102.6,140.6 104.4,136.2 105,134.5 C105,134.4 105.1,134.3 105.1,134.3 C105.2,134.3 105.2,134.5 105.4,135.1 C105.6,135.8 106.3,137.8 106.9,139.2 L108.2,143 z M105.7,140.4 L104.2,136.8 C103.9,137.5 103,139.7 102.7,140.4 L105.7,140.4 z" fill="#015AAA"/>
      <path d="M120.4,136.7 C120.3,136.5 120.3,136 120.2,135.7 C119.5,135.3 118.5,135.1 117.2,135.1 C117.1,136 117.1,137.8 117.1,139.1 C117.1,140.4 117.1,142.2 117.2,143.1 C117.4,143.1 118.1,143.2 118.4,143.3 C118.4,143.3 118.5,143.4 118.5,143.4 C118.5,143.5 118.4,143.5 118.4,143.5 C118.3,143.5 117.5,143.4 116.5,143.4 C115.4,143.4 114.7,143.5 114.6,143.5 C114.5,143.5 114.5,143.4 114.5,143.4 C114.5,143.3 114.6,143.3 114.6,143.3 C114.9,143.2 115.6,143.1 115.8,143.1 C115.9,142.2 115.9,140.4 115.9,139.1 C115.9,137.8 115.9,136 115.8,135.1 C114.5,135.1 113.5,135.3 112.8,135.7 C112.8,136.1 112.7,136.5 112.6,136.7 C112.6,136.8 112.6,136.8 112.5,136.8 C112.4,136.8 112.3,136.7 112.3,136.6 C112.3,136.5 112.4,135.8 112.4,135.4 C112.4,135.1 112.3,134.2 112.3,134.1 C112.3,134 112.4,133.9 112.5,133.9 C112.6,133.9 112.6,134 112.6,134 C112.7,134.2 112.7,134.4 112.7,134.5 C113.6,134.7 115.6,134.7 116.4,134.7 C117.2,134.7 119.2,134.7 120.1,134.5 C120.1,134.4 120.1,134.2 120.2,134 C120.2,133.9 120.3,133.9 120.3,133.9 C120.4,133.9 120.5,134 120.5,134.1 C120.5,134.3 120.4,135.1 120.4,135.4 C120.4,135.8 120.5,136.5 120.5,136.6 C120.5,136.7 120.5,136.8 120.3,136.8 C120.4,136.8 120.4,136.7 120.4,136.7 z" fill="#015AAA"/>
      <path d="M134.9,139 C134.9,141.4 133,143.5 130.3,143.5 C127.2,143.5 125.5,141.6 125.5,139 C125.5,136.2 127.8,134.4 130.3,134.4 C133.2,134.5 134.9,136.4 134.9,139 z M133.2,139 C133.2,137.4 132.6,134.7 130.2,134.7 C128,134.7 127,136.6 127,139 C127,140.7 127.7,143.3 130.2,143.3 C132.4,143.3 133.2,141 133.2,139 z" fill="#015AAA"/>
    </g>
  </g>
</svg>
