<svg width="75" height="132" viewBox="0 0 75 132"  version="1.1" xmlns="http://www.w3.org/2000/svg" xmlns:xlink="http://www.w3.org/1999/xlink">
	<path fill="none" d="M0 0h75v132H0z"/>
	<path fill="#fff" d="M1.062 1.341h72.656v129.092H1.062z"/>
	<path fill="#015aaa" d="M7.285 125.184h61.784V8.544H7.285z"/>
	<path fill="#015aaa" d="M.392 131.52h74.216V.48H.392zm72.616-1.728H1.869V2.208h71.139z"/>
	<path fill="#fff" d="M12.331 98.4c2.707 10.944 12.307 17.136 21.292 18.144 15.015 1.296 36.308-12.24 30.031-33.552-2.708-8.784-9.969-15.408-15.631-21.312-5.908-6.336-13.292-14.4-13.169-24.768.123-10.512 10.338-12.528 16.369-8.352 2.708 1.728 12.431-.576 7.385-3.888-10.585-7.056-35.077-5.328-34.216 14.688.493 9.216 7.016 16.992 12.308 22.896 5.785 6.336 12.431 12.24 16 20.736 3.815 8.64.246 17.712-5.785 23.184-7.63 7.056-16.492 6.048-22.277-3.312-2.83-4.752-3.446-11.088-1.723-16.704.862-2.88 6.154-9.36 6.4-9.216 2.831 1.584 7.631 12.816 3.077 14.544-1.969.864-1.846 3.024 0 4.032 2.462 1.008 5.046 1.008 7.385 0 5.908-2.448 5.292-10.656 2.831-16.128-3.693-8.208-12.554-9.792-19.2-6.912-8.862 3.6-13.662 14.976-11.077 25.92M23.9 24.816c6.031 0 6.031-10.944 0-10.944s-6.154 10.944 0 10.944"/>
</svg>
